#!OML:ASF F:\VICON\USERDATA\INSTALL\Justin_Nancy\Justin_Nancy.ASF
:FULLY-SPECIFIED
:DEGREES
173
root 0.934342 17.2728 -18.3211 3.94374 -1.96674 6.51905
lowerback 7.28895 -0.574499 -6.52746
upperback 0.991142 -1.27225 0.231039
thorax -2.91359 -0.562309 4.03208
lowerneck -14.3002 -3.90938 -10.3487
upperneck 19.9852 -4.3989 6.40519
head 8.99997 -2.18547 3.38114
rclavicle 1.48095e-014 -2.38542e-015
rhumerus -29.3369 -5.81552 -83.2586
rradius 38.4995
rwrist 3.37608
rhand -15.0762 13.9195
rfingers 7.12502
rthumb 11.0912 -15.7674
lclavicle 1.48095e-014 -2.38542e-015
lhumerus -23.6736 2.59046 82.7911
lradius 30.8125
lwrist -9.75513
lhand -10.8177 26.4256
lfingers 7.12502
lthumb 15.1961 55.8476
rfemur -37.1973 -2.97379 15.7878
rtibia 48.6786
rfoot -8.9508 -11.247
rtoes 0.969849
lfemur -4.75193 -1.21833 -31.1495
ltibia 25.2907
lfoot -19.5321 2.8711
ltoes 0.764311
174
root 0.924249 17.2871 -18.1651 4.04038 -1.84477 6.52376
lowerback 7.33131 -0.71052 -6.62333
upperback 0.942264 -1.46171 0.348453
thorax -2.96041 -0.652092 4.22774
lowerneck -14.6252 -3.86826 -10.4777
upperneck 20.2403 -4.30381 6.48482
head 9.14384 -2.14008 3.44344
rclavicle -1.19271e-015 1.03368e-014
rhumerus -29.0926 -5.97331 -83.1234
rradius 38.3126
rwrist 3.42914
rhand -14.9818 13.4569
rfingers 7.12502
rthumb 11.1823 -16.2251
lclavicle -1.19271e-015 1.03368e-014
lhumerus -23.5761 2.40114 82.8925
lradius 31.1155
lwrist -9.55162
lhand -10.3735 29.8024
lfingers 7.12502
lthumb 15.624 59.1915
rfemur -37.1779 -2.52765 15.4989
rtibia 46.019
rfoot -9.61347 -10.9758
rtoes 6.51313
lfemur -3.98803 -1.14931 -31.1064
ltibia 24.7971
lfoot -19.5948 2.70293
ltoes 0.881693
175
root 0.918649 17.2692 -18.0085 4.21243 -1.68488 6.65749
lowerback 7.23585 -0.795195 -6.69211
upperback 0.916097 -1.57489 0.305092
thorax -2.91995 -0.708549 4.22932
lowerneck -14.7381 -3.91882 -10.3882
upperneck 20.268 -4.41232 6.60038
head 9.18426 -2.17015 3.45453
rclavicle 2.97183e-014 1.19271e-014
rhumerus -29.0097 -6.29555 -83.0467
rradius 38.2749
rwrist 3.37104
rhand -15.1235 13.0733
rfingers 7.12502
rthumb 11.0456 -16.616
lclavicle 2.97183e-014 1.19271e-014
lhumerus -23.3566 1.82603 82.9213
lradius 31.3842
lwrist -9.27466
lhand -9.95315 31.8095
lfingers 7.12502
lthumb 16.0288 61.1665
rfemur -37.4294 -2.73504 15.4859
rtibia 43.1818
rfoot -8.42982 -11.6212
rtoes -0.517295
lfemur -3.32426 -1.08293 -31.2287
ltibia 24.2968
lfoot -19.5501 2.49742
ltoes 0.892627
176
root 0.910476 17.2449 -17.8447 4.31755 -1.7536 6.7893
lowerback 6.96318 -0.830428 -6.82336
upperback 0.948707 -1.61078 0.274458
thorax -2.72628 -0.733033 4.26651
lowerneck -14.5185 -3.99199 -10.2509
upperneck 20.1011 -4.55477 6.55566
head 9.09488 -2.23307 3.39709
rclavicle 1.60022e-014 7.15625e-015
rhumerus -29.0318 -6.49067 -82.9574
rradius 38.329
rwrist 3.27737
rhand -15.3655 13.2467
rfingers 7.12502
rthumb 10.8122 -16.455
lclavicle 1.60022e-014 7.15625e-015
lhumerus -23.1252 1.37498 82.9436
lradius 31.5737
lwrist -9.11404
lhand -11.7002 26.1015
lfingers 7.12502
lthumb 14.3459 55.5859
rfemur -37.5629 -2.75448 15.4572
rtibia 40.368
rfoot -7.64781 -11.8656
rtoes -4.35429
lfemur -2.52706 -0.966816 -31.3779
ltibia 23.7453
lfoot -19.5851 2.54584
ltoes 0.782012
177
root 0.897812 17.2307 -17.6825 4.30784 -1.86343 6.97152
lowerback 6.91404 -0.923792 -7.13312
upperback 0.947701 -1.7527 0.329253
thorax -2.67117 -0.80247 4.50879
lowerneck -14.3481 -3.97579 -10.3455
upperneck 20.0284 -4.53097 6.58099
head 9.03934 -2.22909 3.42526
rclavicle 1.55052e-014 8.74653e-015
rhumerus -28.9123 -6.69584 -82.7816
rradius 38.0994
rwrist 3.55093
rhand -15.2743 13.7178
rfingers 7.12502
rthumb 10.9002 -15.9793
lclavicle 1.55052e-014 8.74653e-015
lhumerus -22.9568 1.43099 82.9356
lradius 31.6571
lwrist -9.10777
lhand -11.8148 25.3362
lfingers 7.12502
lthumb 14.2355 54.8284
rfemur -37.3665 -2.41331 15.1762
rtibia 37.4838
rfoot -7.74596 -11.7445
rtoes -2.95834
lfemur -1.73759 -0.77553 -31.5643
ltibia 23.2597
lfoot -19.5915 2.5849
ltoes 0.381435
178
root 0.887726 17.2209 -17.5174 4.37945 -1.85904 7.21287
lowerback 6.91485 -1.0045 -7.40976
upperback 0.891018 -1.88343 0.318515
thorax -2.7052 -0.861917 4.66523
lowerneck -14.5248 -4.02612 -10.4201
upperneck 20.2252 -4.59542 6.67865
head 9.15007 -2.25385 3.46473
rclavicle 6.06293e-015 7.95139e-015
rhumerus -28.8933 -6.94668 -82.6203
rradius 37.9571
rwrist 3.73855
rhand -15.161 13.4371
rfingers 7.12502
rthumb 11.0095 -16.2541
lclavicle 6.06293e-015 7.95139e-015
lhumerus -22.7358 1.37709 82.9268
lradius 31.6861
lwrist -8.99204
lhand -11.7608 25.6053
lfingers 7.12502
lthumb 14.2875 55.0937
rfemur -37.2168 -2.25428 14.8242
rtibia 34.6306
rfoot -7.72116 -11.3058
rtoes -2.73762
lfemur -1.02724 -0.659339 -31.8121
ltibia 22.7073
lfoot -19.456 2.53894
ltoes -0.296395
179
root 0.877128 17.2152 -17.3522 4.49733 -1.72129 7.40234
lowerback 6.86198 -1.06706 -7.53807
upperback 0.854777 -1.97519 0.253889
thorax -2.6991 -0.905691 4.67631
lowerneck -14.9194 -4.17666 -10.3176
upperneck 20.5141 -4.80604 6.69764
head 9.34111 -2.33789 3.42715
rclavicle -3.00165e-014 -7.15625e-015
rhumerus -28.8849 -7.37928 -82.5177
rradius 37.8097
rwrist 3.84455
rhand -15.3028 12.7851
rfingers 7.12502
rthumb 10.8727 -16.9134
lclavicle -3.00165e-014 -7.15625e-015
lhumerus -22.4187 0.944546 82.9288
lradius 31.7746
lwrist -8.81411
lhand -11.3079 26.0882
lfingers 7.12502
lthumb 14.7238 55.5453
rfemur -37.095 -2.04181 14.4358
rtibia 31.8565
rfoot -7.65192 -10.7331
rtoes -2.51866
lfemur -0.225956 -0.537099 -31.9478
ltibia 22.0697
lfoot -19.3242 2.24749
ltoes -0.675883
180
root 0.859932 17.2083 -17.1901 4.5694 -1.67125 7.42849
lowerback 6.91174 -1.15943 -7.6631
upperback 0.728011 -2.11571 0.300613
thorax -2.83406 -0.964932 4.81131
lowerneck -15.0689 -4.15552 -10.1195
upperneck 20.7132 -4.79401 6.58668
head 9.42873 -2.32801 3.35803
rclavicle 1.00386e-014 -2.14687e-014
rhumerus -28.9163 -7.65098 -82.3755
rradius 37.3653
rwrist 4.04624
rhand -15.632 12.7466
rfingers 7.12502
rthumb 10.5551 -16.9683
lclavicle 1.00386e-014 -2.14687e-014
lhumerus -22.3734 0.775967 82.9196
lradius 31.8755
lwrist -8.73408
lhand -11.1976 26.0476
lfingers 7.12502
lthumb 14.8302 55.4969
rfemur -36.8837 -1.47364 14.1249
rtibia 29.1184
rfoot -7.59462 -10.2794
rtoes -2.236
lfemur 0.672164 -0.516131 -31.89
ltibia 21.421
lfoot -19.2175 2.03749
ltoes -1.79751
181
root 0.84567 17.1954 -17.0214 4.56821 -1.6911 7.58579
lowerback 6.84059 -1.20571 -7.82975
upperback 0.691199 -2.18661 0.257884
thorax -2.8184 -0.998069 4.86435
lowerneck -15.0374 -4.15723 -9.88067
upperneck 20.78 -4.8466 6.51447
head 9.44223 -2.34276 3.28702
rclavicle 2.88238e-014 1.11319e-014
rhumerus -29.1054 -8.08834 -82.2286
rradius 37.1917
rwrist 4.21974
rhand -15.5035 13.137
rfingers 7.12502
rthumb 10.6791 -16.5716
lclavicle 2.88238e-014 1.11319e-014
lhumerus -22.3086 0.679998 82.9009
lradius 31.8625
lwrist -8.79056
lhand -11.6321 25.625
lfingers 7.12502
lthumb 14.4115 55.1047
rfemur -36.5214 -0.846969 13.6197
rtibia 26.443
rfoot -7.4803 -9.84505
rtoes -3.09299
lfemur 1.65037 -0.415223 -31.9853
ltibia 20.8211
lfoot -19.1019 1.80382
ltoes -3.29859
182
root 0.833007 17.1803 -16.8503 4.64247 -1.7248 7.75071
lowerback 6.67735 -1.24466 -7.96104
upperback 0.692339 -2.2349 0.212316
thorax -2.71582 -1.02521 4.88834
lowerneck -15.1414 -4.27151 -9.90649
upperneck 20.8705 -5.0245 6.64194
head 9.51368 -2.41275 3.31258
rclavicle -5.26779e-015 1.43125e-014
rhumerus -29.282 -8.44708 -82.0627
rradius 37.1516
rwrist 4.30275
rhand -15.153 13.3789
rfingers 7.12502
rthumb 11.0172 -16.312
lclavicle -5.26779e-015 1.43125e-014
lhumerus -21.9325 0.725393 82.8543
lradius 31.5579
lwrist -8.94169
lhand -11.6124 25.2943
lfingers 7.12502
lthumb 14.4304 54.7726
rfemur -36.2161 -0.170181 13.0741
rtibia 23.8839
rfoot -7.17587 -9.44724
rtoes -5.47517
lfemur 2.5418 -0.259502 -32.0793
ltibia 20.2389
lfoot -18.9287 1.57955
ltoes -4.43912
183
root 0.817859 17.1679 -16.6818 4.80741 -1.77532 7.73555
lowerback 6.53509 -1.35349 -8.03256
upperback 0.632201 -2.37132 0.321746
thorax -2.67193 -1.09207 5.04968
lowerneck -15.4207 -4.30743 -10.1082
upperneck 21.1092 -5.03691 6.76967
head 9.66023 -2.41772 3.39028
rclavicle -9.83984e-015 -2.70347e-014
rhumerus -29.2382 -8.6141 -81.885
rradius 36.868
rwrist 4.47384
rhand -14.8937 13.1349
rfingers 7.12502
rthumb 11.2673 -16.5425
lclavicle -9.83984e-015 -2.70347e-014
lhumerus -21.6237 0.920468 82.8476
lradius 31.3469
lwrist -9.01256
lhand -11.4982 25.0606
lfingers 7.12502
lthumb 14.5405 54.531
rfemur -36.0099 0.748536 12.6236
rtibia 21.4649
rfoot -7.06701 -9.22754
rtoes -6.05202
lfemur 3.26855 -0.0522332 -31.9746
ltibia 19.6636
lfoot -18.6774 1.4923
ltoes -6.73591
184
root 0.800446 17.16 -16.5103 4.89289 -1.83147 7.81853
lowerback 6.35774 -1.42055 -8.15016
upperback 0.642678 -2.45246 0.31126
thorax -2.54533 -1.13713 5.10355
lowerneck -15.408 -4.30902 -10.0316
upperneck 21.036 -5.07477 6.84103
head 9.63495 -2.42121 3.39669
rclavicle 2.55438e-014 -7.95139e-016
rhumerus -29.1235 -8.94289 -81.8483
rradius 36.4654
rwrist 4.63737
rhand -14.9931 12.6969
rfingers 7.12502
rthumb 11.1714 -16.9857
lclavicle 2.55438e-014 -7.95139e-016
lhumerus -21.4608 0.829985 82.8016
lradius 31.4605
lwrist -9.12484
lhand -11.5315 25.5142
lfingers 7.12502
lthumb 14.5084 54.9869
rfemur -35.6453 1.61955 12.0594
rtibia 19.1425
rfoot -7.09842 -8.92534
rtoes -4.47077
lfemur 3.92188 0.107189 -31.9556
ltibia 19.1727
lfoot -18.3247 1.22014
ltoes -7.62743
185
root 0.7866 17.1571 -16.3367 4.81708 -1.8759 7.82468
lowerback 6.38032 -1.46453 -8.08693
upperback 0.627616 -2.51008 0.284864
thorax -2.56915 -1.16506 5.04567
lowerneck -15.147 -4.29513 -9.97566
upperneck 20.82 -5.1039 6.91286
head 9.51307 -2.42616 3.40836
rclavicle -1.11319e-014 2.06736e-014
rhumerus -29.2442 -9.24138 -81.744
rradius 36.0138
rwrist 4.77794
rhand -15.3594 12.6503
rfingers 7.12502
rthumb 10.8181 -17.0511
lclavicle -1.11319e-014 2.06736e-014
lhumerus -21.6502 0.713353 82.7396
lradius 31.7069
lwrist -9.16737
lhand -11.5991 26.1522
lfingers 7.12502
lthumb 14.4433 55.6296
rfemur -35.0636 2.2821 11.7094
rtibia 16.979
rfoot -6.99151 -8.61464
rtoes -4.5694
lfemur 4.71282 -0.0154079 -31.894
ltibia 18.7664
lfoot -17.8915 0.873594
ltoes -7.19918
186
root 0.773331 17.1526 -16.1603 4.79374 -2.04156 7.71318
lowerback 6.25218 -1.45899 -7.92809
upperback 0.687897 -2.47739 0.283524
thorax -2.44581 -1.15756 4.94601
lowerneck -15.1811 -4.29289 -9.83546
upperneck 20.7234 -5.14068 6.96313
head 9.48594 -2.42551 3.39602
rclavicle -1.31198e-014 1.98785e-014
rhumerus -29.3855 -9.56378 -81.6149
rradius 35.6896
rwrist 4.90794
rhand -15.5558 12.7103
rfingers 7.12502
rthumb 10.6287 -17.0009
lclavicle -1.31198e-014 1.98785e-014
lhumerus -21.5217 0.717888 82.658
lradius 31.6993
lwrist -9.28517
lhand -11.4671 26.6233
lfingers 7.12502
lthumb 14.5705 56.0916
rfemur -34.5789 2.82027 11.6459
rtibia 15.0848
rfoot -6.67358 -8.37154
rtoes -5.65569
lfemur 5.54015 -0.0441974 -31.7472
ltibia 18.4071
lfoot -17.5347 0.742201
ltoes -8.51501
187
root 0.759238 17.14 -15.984 4.81559 -2.2536 7.79938
lowerback 6.12062 -1.45016 -8.01061
upperback 0.752402 -2.45699 0.263817
thorax -2.30506 -1.15469 4.96361
lowerneck -15.4928 -4.30044 -9.85051
upperneck 20.823 -5.17108 7.16906
head 9.58741 -2.41316 3.46567
rclavicle 2.82274e-014 3.97569e-015
rhumerus -29.425 -9.89996 -81.4642
rradius 35.4128
rwrist 5.06988
rhand -15.3649 12.6859
rfingers 7.12502
rthumb 10.8128 -17.0157
lclavicle 2.82274e-014 3.97569e-015
lhumerus -21.1083 0.740579 82.6537
lradius 31.5022
lwrist -9.1351
lhand -11.5388 26.9968
lfingers 7.12502
lthumb 14.5014 56.47
rfemur -34.1918 3.03643 11.5346
rtibia 13.4758
rfoot -6.11663 -7.8522
rtoes -6.6096
lfemur 6.26947 0.137495 -31.8051
ltibia 18.1415
lfoot -17.2683 0.628512
ltoes -10.2112
